<svg enable-background="new 0 0 140 140" height="512" viewBox="0 0 140 140" width="512" xmlns="http://www.w3.org/2000/svg"><circle cx="70" cy="70" fill="#509fd7" r="64"/><path d="m133.9499512 68.0799561c.0200195.6400146.0500488 1.2800293.0500488 1.9200439 0 35.3499756-28.6500244 64-64 64-2.1599121 0-4.2900391-.1099854-6.4000244-.3200684l-29.6199951-29.6298828v-16.630127l-9.5700684-9.5699463 8.5300293-13.7099609-8.5300293-8.5300293 16.2401123-9.3800049-.4901123-.4799804.0200195-.0100098c-.1499023-.1199951-.25-.3000488-.25-.5100098 0-.3699951.3100586-.6799316.6800537-.6799316h2.960083l8.9099121-5.1501465-8.2700195-8.2698975c-.3299561-.1800537-.4399414-.5999756-.25-.9300537.1900635-.3199463.6101074-.4399414.9300537-.25l6.0100098 3.4699707c.0999756.0500489.170044.130127.2199707.2200928l3.5300293 3.5299072c1.6700439-3.0799561 4.2299805-5.5899658 7.3399658-7.2099609l-3.6999512-3.6899414.0100098-.0100098c-.0500488-.0400391-.0900879-.0800781-.1201172-.1300049l-3.4699707-6c-.1799316-.3299561-.0699463-.75.25-.9300537.3300781-.1899414.75-.0799561.9400635.25l9.25 9.25c1.7799072-.5100098 3.6700439-.7600098 5.6400146-.6699219 1.4699707.0599365 2.8798828.3199463 4.2399902.7399902l-5.3900146-5.3900146v-.0300293c-.1900635-.1199951-.3299561-.3299561-.3299561-.5699463v-6.9300537c0-.3699951.3099365-.6800537.6899414-.6800537.2099609 0 .3900146.1000977.5100098.25l.0100098-.0100098 10.0899659 10.090088c.0100098-.0100098.0100098-.0300293.0200195-.0500488l3.4699707-6c.1800537-.3299561.5999756-.4399414.9300537-.25.0799561.0400391.1398926.1000977.1899414.1700439l.0100098-.0200195z" opacity=".1"/><path d="m69.9957275 41.6671143-36.0184326 20.795288v41.5903321l36.0184326 20.7956543 36.0184327-20.7956543v-41.5903321z" fill="#d6b24e"/><path d="m33.9773369 62.4623375v41.590435l36.0183983 20.7956391v-83.1812897z" fill="#c6a648"/><path d="m106.0141144 62.4625168-36.018425-20.79525-36.0184212 20.79525 36.0184212 20.7952499z" fill="#dc594e"/><path d="m79.5643921 98.6411896 36.0183945-20.7956467-9.5686493-15.3832054-36.0184021 20.7956428z" fill="#ffd25a"/><path d="m60.4270897 98.6411896-36.0184021-20.7956467 9.5686493-15.3832054 36.0183983 20.7956428z" fill="#ffd25a"/><path d="m60.4270897 34.8157921-36.0184021 20.7956467 9.5686493 6.851078 36.0183983-20.7956467z" fill="#f0c150"/><path d="m79.5643921 34.8157921 36.0183945 20.7956467-9.5686493 6.851078-36.0184021-20.7956467z" fill="#f0c150"/><path d="m87.4242706 44.7296677c-.3641663-8.9382172-7.6932373-16.3085003-16.629982-16.7043591-9.9968872-.4424877-18.2420044 7.5325718-18.2420044 17.4316959 0 5.4556541 2.5106697 10.3255501 6.442131 13.5201683 2.5816002 2.0976219 4.0250702 5.2884369 4.0250702 8.614769v.0112686h13.952446c0-3.3102722 1.4149399-6.5047455 3.9885864-8.5865936 4.1267091-3.3381653 6.6985856-8.5217933 6.4637528-14.2869491z" fill="#feed32"/><path d="m76.8481674 67.6032104h-13.7049217c-.9675293 0-1.7519188.7843933-1.7519188 1.7519226 0 .9675217.7843895 1.751915 1.7519188 1.751915h13.7049217c.9675293 0 1.7519226-.7843933 1.7519226-1.751915 0-.9675292-.7843933-1.7519226-1.7519226-1.7519226z" fill="#344e5c"/><path d="m64.2972946 71.107048c0 1.935051 1.5687103 3.5038376 3.50383 3.5038376h4.3891678c1.9351196 0 3.50383-1.5687866 3.50383-3.5038376z" fill="#293b44"/><circle cx="69.996" cy="45.232" fill="#f2bc19" r="10.923"/><g fill="#e6e7e8"><path d="m69.4012833 53.58181v-1.2700615c-1.145874-.0682335-2.0080109-.4490128-2.5869522-1.1426849-.5791245-.6936722-.8686829-1.6935196-.8686829-3.0002518v-.3623924h2.2572632c0 .0494957-.0031815.1240959-.0091934.2230911-.0063629.0989952-.0093689.170414-.0093689.2135468 0 .6565475.1051788 1.161068.3159027 1.513916.2103577.353199.5386353.5699272.984642.6505394v-4.2175407c-1.220108-.6685715-2.0900269-1.3452721-2.6102829-2.0293961-.520256-.6841278-.7802963-1.4877548-.7802963-2.4105301 0-1.0712662.2925644-1.9258041.8778763-2.5639687.5851288-.6374588 1.3947678-.9814644 2.4290924-1.0309639v-1.272438h1.0496979v1.2911758c1.0649033.0123749 1.8763046.3097153 2.4336853.8916626.5571976.5819511.8359756 1.4272957.8359756 2.5356865v.2694092h-2.2015762v-.194809c0-.5264397-.1005859-.9383316-.3017578-1.2356682-.2013474-.2969856-.48172-.4550247-.8407516-.4737625v3.7992859c1.4119186.730793 2.3764114 1.4276466 2.893486 2.0902061.517067.6625595.7756958 1.4891701.7756958 2.4801788 0 1.2197609-.3081284 2.1704636-.9241943 2.8514099-.6162415.6812973-1.5064926 1.0560646-2.6705627 1.1242981v1.2700616zm.0836105-10.3270416-.0093689-3.3067856c-.3592072.0311127-.6348038.1781921-.8267822.4412346-.1919785.2630463-.287796.6240234-.287796 1.0822296 0 .3468361.091217.6671562.2740097.9613113.1826095.2941552.465805.568161.8499374.8220101zm.8916626 7.1527443c.4148941-.0746002.7306213-.2556229.947525-.5434151.2167282-.2881432.3250885-.6703377.3250885-1.1472778 0-.4705811-.092804-.8577232-.278595-1.1610718s-.5172501-.6070518-.9940186-.9104004v3.7621651z"/><path d="m99.3767166 45.9148254h-6.9323578c-.3754196 0-.6825867-.3071594-.6825867-.6825829 0-.3754234.3071671-.6825867.6825867-.6825867h6.9323578c.3754196 0 .682579.3071632.682579.6825867.0000001.3754235-.3071594.6825829-.682579.6825829z"/><path d="m47.5470238 45.9148254h-6.932354c-.3754234 0-.6825867-.3071594-.6825867-.6825829 0-.3754234.3071632-.6825867.6825867-.6825867h6.932354c.3754234 0 .6825867.3071632.6825867.6825867-.0000001.3754235-.3071633.6825829-.6825867.6825829z"/><path d="m95.7817001 31.1328659-6.0036011 3.4661789c-.3251266.1877098-.7447128.0752831-.9324265-.2498436-.1877136-.3251228-.0752792-.7447166.2498398-.9324265l6.0036011-3.4661789c.325119-.1877117.7447128-.0752811.9324265.2498417v.0000019c.1877136.3251248.0752793.7447167-.2498398.9324265z"/><path d="m50.8958702 57.0477104-6.0035973 3.4661789c-.3251266.1877098-.7447166.0752831-.9324303-.2498436-.1877098-.3251228-.0752792-.7447166.2498436-.9324265l6.0035973-3.4661789c.3251266-.1877098.7447166-.0752831.9324265.2498436h.0000038c.1877098.3251229.0752792.7447167-.2498436.9324265z"/><path d="m85.2773361 20.1288223-3.4661789 6.0035973c-.187706.3251247-.6072998.4375534-.9324265.2498436-.3251266-.1877117-.4375534-.6073036-.2498398-.9324284l3.4661789-6.0035973c.187706-.3251247.6072998-.4375534.9324265-.2498436v.0000019c.3251267.1877099.4375534.6073018.2498398.9324265z"/><path d="m59.3624954 65.0146484-3.4661789 6.0036011c-.1877098.325119-.6073036.4375534-.9324265.2498398h-.0000038c-.3251228-.1877136-.4375534-.6072998-.2498436-.9324265l3.4661789-6.0036011c.1877136-.325119.6073036-.4375496.9324303-.2498398.3251229.1877137.4375534.6072999.2498436.9324265z"/><path d="m70.6782761 15.8512192v6.9323578c0 .3754215-.3071594.6825829-.6825867.6825829-.3754196 0-.682579-.3071613-.682579-.6825829v-6.9323578c0-.3754215.3071594-.6825838.682579-.6825838.3754272 0 .6825867.3071623.6825867.6825838z"/><path d="m55.8963165 19.4462376 3.4661789 6.0035973c.1877098.3251247.0752792.7447166-.2498436.9324284-.3251266.1877098-.7447166.0752811-.9324303-.2498436l-3.4661789-6.0035973c-.1877098-.3251247-.0752792-.7447166.2498436-.9324265l.0000038-.0000019c.3251229-.1877098.7447167-.0752812.9324265.2498436z"/><path d="m81.8111572 64.3320618 3.4661789 6.0036011c.1877136.3251266.0752869.7447128-.2498398.9324265-.3251266.1877136-.7447205.0752792-.9324265-.2498398l-3.4661789-6.0036011c-.1877136-.325119-.0752869-.7447128.2498398-.9324265.3251267-.1877098.7447205-.0752793.9324265.2498398z"/><path d="m44.8922729 29.9505959 6.0035973 3.4661789c.3251228.1877098.4375534.6073036.2498436.9324265h-.0000038c-.1877098.3251266-.6072998.4375534-.9324265.2498436l-6.0035973-3.4661789c-.3251228-.1877098-.4375534-.6073017-.2498436-.9324265v-.0000019c.1877137-.3251229.6073037-.4375535.9324303-.2498417z"/><path d="m89.7780991 55.8654404 6.0036011 3.4661789c.325119.1877098.4375534.6073036.2498398.9324265-.1877136.3251266-.6073074.4375534-.9324265.2498436l-6.0036011-3.4661789c-.325119-.1877098-.4375534-.6073036-.2498398-.9324265.1877136-.3251267.6072998-.4375534.9324265-.2498436z"/></g></svg>